<svg width="335" height="50" viewBox="0 0 335 50" fill="none" xmlns="http://www.w3.org/2000/svg">
<path fill-rule="evenodd" clip-rule="evenodd" d="M3.99917 24.9997H20.499L36.9988 0H20.499L3.99917 24.9997ZM36.9976 50H20.4977L3.99792 25.0003H20.4977L36.9976 50Z" fill="#FC9C2C"/>
<path d="M54.0239 37.6C52.3173 37.6 50.7839 37.4267 49.4239 37.08C48.0639 36.7333 46.9039 36.2 45.9439 35.48C45.0106 34.76 44.2906 33.88 43.7839 32.84C43.3039 31.7733 43.0506 30.56 43.0239 29.2L47.5439 27.92C47.5439 29.2267 47.8239 30.3067 48.3839 31.16C48.9439 31.9867 49.7306 32.6 50.7439 33C51.7839 33.4 52.9573 33.6 54.2639 33.6C55.5173 33.6 56.5839 33.44 57.4639 33.12C58.3439 32.8 59.0106 32.3733 59.4639 31.84C59.9173 31.3067 60.1439 30.6933 60.1439 30C60.1439 29.2267 59.8639 28.6 59.3039 28.12C58.7439 27.64 57.9839 27.2533 57.0239 26.96C56.0639 26.64 54.9839 26.3467 53.7839 26.08C52.5306 25.7867 51.2906 25.4667 50.0639 25.12C48.8639 24.7467 47.7573 24.28 46.7439 23.72C45.7573 23.1333 44.9573 22.3867 44.3439 21.48C43.7573 20.5733 43.4639 19.4133 43.4639 18C43.4639 16.4 43.8639 15.0133 44.6639 13.84C45.4906 12.6667 46.6639 11.76 48.1839 11.12C49.7039 10.48 51.5173 10.16 53.6239 10.16C55.7039 10.16 57.5173 10.48 59.0639 11.12C60.6373 11.76 61.8639 12.6933 62.7439 13.92C63.6239 15.12 64.0639 16.56 64.0639 18.24L59.4639 19.4C59.4639 18.5467 59.3306 17.7867 59.0639 17.12C58.7973 16.4533 58.3973 15.9067 57.8639 15.48C57.3573 15.0267 56.7306 14.6933 55.9839 14.48C55.2639 14.2667 54.4506 14.16 53.5439 14.16C52.4506 14.16 51.5173 14.3067 50.7439 14.6C49.9706 14.8933 49.3706 15.2933 48.9439 15.8C48.5173 16.3067 48.3039 16.9067 48.3039 17.6C48.3039 18.4267 48.6106 19.0933 49.2239 19.6C49.8373 20.1067 50.6639 20.52 51.7039 20.84C52.7439 21.1333 53.8773 21.4267 55.1039 21.72C56.2506 21.96 57.3973 22.2533 58.5439 22.6C59.7173 22.9467 60.7973 23.4133 61.7839 24C62.7706 24.56 63.5573 25.32 64.1439 26.28C64.7306 27.2133 65.0239 28.4 65.0239 29.84C65.0239 31.4133 64.5973 32.7867 63.7439 33.96C62.9173 35.1333 61.6906 36.04 60.0639 36.68C58.4373 37.2933 56.4239 37.6 54.0239 37.6Z" fill="white"/>
<path d="M71.3383 37.08L66.0183 16.16H71.2983L74.6183 32.96H75.2183L79.0183 16.16H85.0983L88.8983 32.96H89.4983L92.8183 16.16H97.9783L92.6583 37.08H85.6983L82.1783 20.6H81.6583L78.2183 37.08H71.3383Z" fill="white"/>
<path d="M100.059 37.08V16.16H105.099V37.08H100.059ZM102.619 13.12C101.579 13.12 100.792 12.9067 100.259 12.48C99.7253 12.0267 99.4586 11.4 99.4586 10.6C99.4586 9.74667 99.7253 9.10667 100.259 8.68C100.792 8.22667 101.579 8 102.619 8C103.659 8 104.445 8.22667 104.979 8.68C105.512 9.10667 105.779 9.74667 105.779 10.6C105.779 11.4 105.512 12.0267 104.979 12.48C104.445 12.9067 103.659 13.12 102.619 13.12Z" fill="white"/>
<path d="M110.812 37.08V23.32H107.412V19.52L112.972 19.84V19.16C112.039 18.9467 111.279 18.6 110.692 18.12C110.105 17.64 109.679 17.0667 109.412 16.4C109.145 15.7333 109.012 15.04 109.012 14.32C109.012 13.1733 109.292 12.1867 109.852 11.36C110.412 10.5067 111.199 9.84 112.212 9.36C113.252 8.88 114.452 8.64 115.812 8.64C116.959 8.64 117.999 8.8 118.932 9.12C119.892 9.41333 120.679 9.8 121.292 10.28L120.852 14.92C120.239 14.44 119.545 14.0533 118.772 13.76C118.025 13.4667 117.292 13.32 116.572 13.32C115.745 13.32 115.065 13.56 114.532 14.04C113.999 14.52 113.732 15.24 113.732 16.2C113.732 16.8667 113.852 17.4133 114.092 17.84C114.359 18.2667 114.692 18.6 115.092 18.84C115.492 19.08 115.932 19.2267 116.412 19.28H121.092L121.052 23.32H115.772V37.08H110.812Z" fill="white"/>
<path d="M130.957 37.52C129.864 37.52 128.904 37.3733 128.077 37.08C127.277 36.7867 126.61 36.3467 126.077 35.76C125.544 35.1467 125.144 34.3867 124.877 33.48C124.61 32.5733 124.477 31.5067 124.477 30.28V20.24H121.557L121.597 16.32H123.357C124.237 16.2933 124.877 16.12 125.277 15.8C125.677 15.48 125.93 14.9333 126.037 14.16L126.397 11.52H129.357V16.16H134.797V20.36H129.357V30.04C129.357 31.1333 129.624 31.8933 130.157 32.32C130.69 32.72 131.344 32.92 132.117 32.92C132.624 32.92 133.117 32.8667 133.597 32.76C134.077 32.6267 134.517 32.4133 134.917 32.12V36.88C134.144 37.1467 133.424 37.32 132.757 37.4C132.09 37.48 131.49 37.52 130.957 37.52Z" fill="white"/>
<path d="M145.288 29.3201V25.2801H150.928C151.408 25.2801 151.942 25.2668 152.528 25.2401C153.142 25.1868 153.742 25.0801 154.328 24.9201C154.942 24.7601 155.502 24.4934 156.008 24.1201C156.515 23.7201 156.915 23.1868 157.208 22.5201C157.528 21.8534 157.688 20.9868 157.688 19.9201C157.688 18.8801 157.528 18.0401 157.208 17.4001C156.915 16.7334 156.515 16.2134 156.008 15.8401C155.528 15.4668 155.008 15.2001 154.448 15.0401C153.888 14.8801 153.355 14.7868 152.848 14.7601C152.368 14.7334 151.968 14.7201 151.648 14.7201H145.288V10.6801H152.008C153.608 10.6801 155.062 10.8668 156.368 11.2401C157.702 11.6134 158.848 12.1868 159.808 12.9601C160.795 13.7334 161.542 14.7068 162.048 15.8801C162.582 17.0534 162.848 18.4401 162.848 20.0401C162.848 22.0401 162.382 23.7334 161.448 25.1201C160.542 26.5068 159.182 27.5601 157.368 28.2801C155.582 28.9734 153.342 29.3201 150.648 29.3201H145.288ZM141.968 37.0801V10.6801H147.008V37.0801H141.968Z" fill="#97A2B7"/>
<path d="M165.371 37.0801V26.5601V16.1601H169.691L169.531 23.7201H170.211C170.424 21.8801 170.784 20.3734 171.291 19.2001C171.798 18.0268 172.491 17.1468 173.371 16.5601C174.251 15.9734 175.331 15.6801 176.611 15.6801C176.878 15.6801 177.171 15.7068 177.491 15.7601C177.838 15.8134 178.224 15.8934 178.651 16.0001L178.411 21.4001C177.984 21.2134 177.544 21.0801 177.091 21.0001C176.638 20.8934 176.211 20.8401 175.811 20.8401C174.798 20.8401 173.918 21.1201 173.171 21.6801C172.424 22.2401 171.824 23.0401 171.371 24.0801C170.918 25.0934 170.611 26.3068 170.451 27.7201V37.0801H165.371Z" fill="#97A2B7"/>
<path d="M189.742 37.6001C187.689 37.6001 185.875 37.1868 184.302 36.3601C182.755 35.5334 181.542 34.3068 180.662 32.6801C179.782 31.0268 179.342 28.9868 179.342 26.5601C179.342 24.1068 179.795 22.0801 180.702 20.4801C181.609 18.8534 182.835 17.6401 184.382 16.8401C185.955 16.0401 187.729 15.6401 189.702 15.6401C191.729 15.6401 193.529 16.0534 195.102 16.8801C196.675 17.7068 197.902 18.9334 198.782 20.5601C199.689 22.1868 200.142 24.2268 200.142 26.6801C200.142 29.1334 199.689 31.1734 198.782 32.8001C197.875 34.4268 196.635 35.6401 195.062 36.4401C193.489 37.2134 191.715 37.6001 189.742 37.6001ZM189.902 33.7601C190.569 33.7601 191.209 33.6401 191.822 33.4001C192.462 33.1601 193.022 32.7734 193.502 32.2401C193.982 31.7068 194.355 31.0134 194.622 30.1601C194.915 29.2801 195.062 28.2001 195.062 26.9201C195.062 25.5868 194.902 24.4668 194.582 23.5601C194.289 22.6268 193.889 21.8801 193.382 21.3201C192.875 20.7334 192.289 20.3068 191.622 20.0401C190.955 19.7734 190.275 19.6401 189.582 19.6401C188.915 19.6401 188.275 19.7601 187.662 20.0001C187.049 20.2401 186.489 20.6268 185.982 21.1601C185.502 21.6934 185.115 22.4001 184.822 23.2801C184.555 24.1334 184.422 25.2134 184.422 26.5201C184.422 27.8268 184.569 28.9468 184.862 29.8801C185.155 30.7868 185.555 31.5334 186.062 32.1201C186.595 32.6801 187.182 33.0934 187.822 33.3601C188.489 33.6268 189.182 33.7601 189.902 33.7601Z" fill="#97A2B7"/>
<path d="M203.088 43.5601V26.3201V16.1601H207.408L207.328 22.0401L207.928 22.0801C208.195 20.6668 208.635 19.4934 209.248 18.5601C209.862 17.6001 210.635 16.8801 211.568 16.4001C212.502 15.8934 213.595 15.6401 214.848 15.6401C216.688 15.6401 218.248 16.0934 219.528 17.0001C220.808 17.9068 221.782 19.1868 222.448 20.8401C223.142 22.4934 223.488 24.4401 223.488 26.6801C223.488 28.8401 223.168 30.7468 222.528 32.4001C221.888 34.0534 220.942 35.3334 219.688 36.2401C218.435 37.1468 216.915 37.6001 215.128 37.6001C213.768 37.6001 212.622 37.3334 211.688 36.8001C210.755 36.2668 209.982 35.5068 209.368 34.5201C208.782 33.5334 208.315 32.4001 207.968 31.1201H207.328C207.488 31.8934 207.622 32.6801 207.728 33.4801C207.862 34.2534 207.955 35.0134 208.008 35.7601C208.088 36.4801 208.128 37.1868 208.128 37.8801V43.5601H203.088ZM213.448 33.4801C214.488 33.4801 215.355 33.1868 216.048 32.6001C216.742 32.0134 217.275 31.2134 217.648 30.2001C218.048 29.1868 218.248 28.0134 218.248 26.6801C218.248 25.3201 218.048 24.1334 217.648 23.1201C217.275 22.1068 216.728 21.3201 216.008 20.7601C215.288 20.2001 214.422 19.9201 213.408 19.9201C212.528 19.9201 211.755 20.1201 211.088 20.5201C210.448 20.8934 209.902 21.4001 209.448 22.0401C209.022 22.6801 208.688 23.3734 208.448 24.1201C208.235 24.8668 208.128 25.6134 208.128 26.3601V26.9601C208.128 27.5201 208.195 28.1068 208.328 28.7201C208.488 29.3068 208.715 29.8801 209.008 30.4401C209.302 31.0001 209.662 31.5068 210.088 31.9601C210.515 32.4134 211.008 32.7868 211.568 33.0801C212.128 33.3468 212.755 33.4801 213.448 33.4801Z" fill="#97A2B7"/>
<path d="M235.936 37.6001C233.882 37.6001 232.069 37.1868 230.496 36.3601C228.949 35.5334 227.736 34.3068 226.856 32.6801C225.976 31.0268 225.536 28.9868 225.536 26.5601C225.536 24.1068 225.989 22.0801 226.896 20.4801C227.802 18.8534 229.029 17.6401 230.576 16.8401C232.149 16.0401 233.922 15.6401 235.896 15.6401C237.922 15.6401 239.722 16.0534 241.296 16.8801C242.869 17.7068 244.096 18.9334 244.976 20.5601C245.882 22.1868 246.336 24.2268 246.336 26.6801C246.336 29.1334 245.882 31.1734 244.976 32.8001C244.069 34.4268 242.829 35.6401 241.256 36.4401C239.682 37.2134 237.909 37.6001 235.936 37.6001ZM236.096 33.7601C236.762 33.7601 237.402 33.6401 238.016 33.4001C238.656 33.1601 239.216 32.7734 239.696 32.2401C240.176 31.7068 240.549 31.0134 240.816 30.1601C241.109 29.2801 241.256 28.2001 241.256 26.9201C241.256 25.5868 241.096 24.4668 240.776 23.5601C240.482 22.6268 240.082 21.8801 239.576 21.3201C239.069 20.7334 238.482 20.3068 237.816 20.0401C237.149 19.7734 236.469 19.6401 235.776 19.6401C235.109 19.6401 234.469 19.7601 233.856 20.0001C233.242 20.2401 232.682 20.6268 232.176 21.1601C231.696 21.6934 231.309 22.4001 231.016 23.2801C230.749 24.1334 230.616 25.2134 230.616 26.5201C230.616 27.8268 230.762 28.9468 231.056 29.8801C231.349 30.7868 231.749 31.5334 232.256 32.1201C232.789 32.6801 233.376 33.0934 234.016 33.3601C234.682 33.6268 235.376 33.7601 236.096 33.7601Z" fill="#97A2B7"/>
<path d="M257.639 37.6001C256.226 37.6001 254.946 37.4534 253.799 37.1601C252.679 36.8934 251.706 36.4934 250.879 35.9601C250.079 35.4268 249.439 34.7601 248.959 33.9601C248.506 33.1601 248.253 32.2668 248.199 31.2801L252.239 30.0001C252.293 30.7468 252.546 31.4134 252.999 32.0001C253.453 32.5868 254.093 33.0401 254.919 33.3601C255.773 33.6801 256.786 33.8401 257.959 33.8401C259.266 33.8401 260.279 33.6268 260.999 33.2001C261.746 32.7734 262.119 32.1734 262.119 31.4001C262.119 30.8401 261.919 30.4001 261.519 30.0801C261.119 29.7334 260.546 29.4534 259.799 29.2401C259.053 29.0001 258.146 28.7734 257.079 28.5601C256.039 28.3468 255.013 28.1068 253.999 27.8401C253.013 27.5468 252.093 27.1734 251.239 26.7201C250.413 26.2401 249.746 25.6268 249.239 24.8801C248.759 24.1334 248.519 23.1868 248.519 22.0401C248.519 20.7334 248.866 19.6134 249.559 18.6801C250.253 17.7201 251.239 16.9734 252.519 16.4401C253.826 15.9068 255.386 15.6401 257.199 15.6401C258.906 15.6401 260.399 15.8934 261.679 16.4001C262.959 16.8801 263.986 17.5868 264.759 18.5201C265.559 19.4268 266.039 20.5601 266.199 21.9201L261.999 23.0401C261.946 22.2668 261.706 21.6134 261.279 21.0801C260.879 20.5468 260.319 20.1468 259.599 19.8801C258.906 19.5868 258.079 19.4401 257.119 19.4401C255.919 19.4401 254.973 19.6534 254.279 20.0801C253.586 20.5068 253.239 21.0934 253.239 21.8401C253.239 22.4001 253.453 22.8668 253.879 23.2401C254.333 23.5868 254.946 23.8668 255.719 24.0801C256.493 24.2668 257.399 24.4801 258.439 24.7201C259.453 24.9334 260.453 25.1734 261.439 25.4401C262.453 25.7068 263.359 26.0668 264.159 26.5201C264.986 26.9734 265.639 27.5734 266.119 28.3201C266.599 29.0668 266.839 30.0134 266.839 31.1601C266.839 32.5201 266.466 33.6934 265.719 34.6801C264.999 35.6401 263.946 36.3734 262.559 36.8801C261.199 37.3601 259.559 37.6001 257.639 37.6001Z" fill="#97A2B7"/>
<path d="M274.605 37.6001C273.458 37.6001 272.431 37.3868 271.525 36.9601C270.618 36.5334 269.898 35.8934 269.365 35.0401C268.831 34.1601 268.565 33.0801 268.565 31.8001C268.565 30.4134 268.871 29.3068 269.485 28.4801C270.098 27.6268 270.885 26.9734 271.845 26.5201C272.831 26.0401 273.885 25.6934 275.005 25.4801C276.125 25.2668 277.191 25.0801 278.205 24.9201C279.245 24.7868 280.058 24.6534 280.645 24.5201C281.258 24.3601 281.685 24.1468 281.925 23.8801C282.191 23.5868 282.325 23.2001 282.325 22.7201C282.325 22.1068 282.191 21.5734 281.925 21.1201C281.658 20.6668 281.245 20.3068 280.685 20.0401C280.151 19.7468 279.471 19.6001 278.645 19.6001C277.898 19.6001 277.165 19.7334 276.445 20.0001C275.751 20.2668 275.151 20.6934 274.645 21.2801C274.165 21.8668 273.845 22.6268 273.685 23.5601L269.165 22.3601C269.405 21.2134 269.805 20.2268 270.365 19.4001C270.925 18.5468 271.618 17.8401 272.445 17.2801C273.271 16.7201 274.205 16.3068 275.245 16.0401C276.311 15.7734 277.458 15.6401 278.685 15.6401C280.285 15.6401 281.631 15.8534 282.725 16.2801C283.845 16.7068 284.738 17.3201 285.405 18.1201C286.071 18.9201 286.551 19.8668 286.845 20.9601C287.138 22.0534 287.285 23.2934 287.285 24.6801V28.5201C287.285 29.4268 287.298 30.3734 287.325 31.3601C287.378 32.3201 287.431 33.2801 287.485 34.2401C287.538 35.2001 287.605 36.1468 287.685 37.0801H283.165C283.085 36.2801 283.018 35.4401 282.965 34.5601C282.911 33.6534 282.871 32.7201 282.845 31.7601H282.245C281.925 32.8268 281.418 33.8134 280.725 34.7201C280.031 35.6001 279.165 36.3068 278.125 36.8401C277.111 37.3468 275.938 37.6001 274.605 37.6001ZM276.565 33.8401C277.125 33.8401 277.685 33.7468 278.245 33.5601C278.805 33.3468 279.351 33.0534 279.885 32.6801C280.418 32.2801 280.898 31.7734 281.325 31.1601C281.778 30.5468 282.138 29.8268 282.405 29.0001L282.365 25.9601L283.365 26.0401C282.938 26.4134 282.391 26.7068 281.725 26.9201C281.085 27.1334 280.391 27.3068 279.645 27.4401C278.925 27.5468 278.191 27.6668 277.445 27.8001C276.725 27.9334 276.058 28.1201 275.445 28.3601C274.858 28.6001 274.378 28.9334 274.005 29.3601C273.658 29.7601 273.485 30.3201 273.485 31.0401C273.485 31.9201 273.765 32.6134 274.325 33.1201C274.911 33.6001 275.658 33.8401 276.565 33.8401Z" fill="#97A2B7"/>
<path d="M291.101 37.0801V8.84009H296.101V37.0801H291.101Z" fill="#97A2B7"/>
<path fill-rule="evenodd" clip-rule="evenodd" d="M335.001 24.9997H318.501L302.001 0H318.501L335.001 24.9997ZM302 50H318.5L335 25.0003H318.5L302 50Z" fill="#742FC9"/>
</svg>
