<svg width="316" height="50" viewBox="0 0 316 50" fill="none" xmlns="http://www.w3.org/2000/svg">
<path fill-rule="evenodd" clip-rule="evenodd" d="M3.99917 24.9997H20.499L36.9988 0H20.499L3.99917 24.9997ZM36.9976 50H20.4977L3.99792 25.0003H20.4977L36.9976 50Z" fill="#FC9C2C"/>
<path fill-rule="evenodd" clip-rule="evenodd" d="M33.0006 24.9997H16.5007L0.000911395 -1.15633e-05H16.5007L33.0006 24.9997ZM2.76566e-05 50H16.4998L32.9997 25.0003H16.4998L2.76566e-05 50Z" fill="#742FC9"/>
<path d="M62.0239 37.6C60.3173 37.6 58.7839 37.4267 57.4239 37.08C56.0639 36.7333 54.9039 36.2 53.9439 35.48C53.0106 34.76 52.2906 33.88 51.7839 32.84C51.3039 31.7733 51.0506 30.56 51.0239 29.2L55.5439 27.92C55.5439 29.2267 55.8239 30.3067 56.3839 31.16C56.9439 31.9867 57.7306 32.6 58.7439 33C59.7839 33.4 60.9573 33.6 62.2639 33.6C63.5173 33.6 64.5839 33.44 65.4639 33.12C66.3439 32.8 67.0106 32.3733 67.4639 31.84C67.9173 31.3067 68.1439 30.6933 68.1439 30C68.1439 29.2267 67.8639 28.6 67.3039 28.12C66.7439 27.64 65.9839 27.2533 65.0239 26.96C64.0639 26.64 62.9839 26.3467 61.7839 26.08C60.5306 25.7867 59.2906 25.4667 58.0639 25.12C56.8639 24.7467 55.7573 24.28 54.7439 23.72C53.7573 23.1333 52.9573 22.3867 52.3439 21.48C51.7573 20.5733 51.4639 19.4133 51.4639 18C51.4639 16.4 51.8639 15.0133 52.6639 13.84C53.4906 12.6667 54.6639 11.76 56.1839 11.12C57.7039 10.48 59.5173 10.16 61.6239 10.16C63.7039 10.16 65.5173 10.48 67.0639 11.12C68.6373 11.76 69.8639 12.6933 70.7439 13.92C71.6239 15.12 72.0639 16.56 72.0639 18.24L67.4639 19.4C67.4639 18.5467 67.3306 17.7867 67.0639 17.12C66.7973 16.4533 66.3973 15.9067 65.8639 15.48C65.3573 15.0267 64.7306 14.6933 63.9839 14.48C63.2639 14.2667 62.4506 14.16 61.5439 14.16C60.4506 14.16 59.5173 14.3067 58.7439 14.6C57.9706 14.8933 57.3706 15.2933 56.9439 15.8C56.5173 16.3067 56.3039 16.9067 56.3039 17.6C56.3039 18.4267 56.6106 19.0933 57.2239 19.6C57.8373 20.1067 58.6639 20.52 59.7039 20.84C60.7439 21.1333 61.8773 21.4267 63.1039 21.72C64.2506 21.96 65.3973 22.2533 66.5439 22.6C67.7173 22.9467 68.7973 23.4133 69.7839 24C70.7706 24.56 71.5573 25.32 72.1439 26.28C72.7306 27.2133 73.0239 28.4 73.0239 29.84C73.0239 31.4133 72.5973 32.7867 71.7439 33.96C70.9173 35.1333 69.6906 36.04 68.0639 36.68C66.4373 37.2933 64.4239 37.6 62.0239 37.6Z" fill="white"/>
<path d="M79.3383 37.08L74.0183 16.16H79.2983L82.6183 32.96H83.2183L87.0183 16.16H93.0983L96.8983 32.96H97.4983L100.818 16.16H105.978L100.658 37.08H93.6983L90.1783 20.6H89.6583L86.2183 37.08H79.3383Z" fill="white"/>
<path d="M108.059 37.08V16.16H113.099V37.08H108.059ZM110.619 13.12C109.579 13.12 108.792 12.9067 108.259 12.48C107.725 12.0267 107.459 11.4 107.459 10.6C107.459 9.74667 107.725 9.10667 108.259 8.68C108.792 8.22667 109.579 8 110.619 8C111.659 8 112.445 8.22667 112.979 8.68C113.512 9.10667 113.779 9.74667 113.779 10.6C113.779 11.4 113.512 12.0267 112.979 12.48C112.445 12.9067 111.659 13.12 110.619 13.12Z" fill="white"/>
<path d="M118.812 37.08V23.32H115.412V19.52L120.972 19.84V19.16C120.039 18.9467 119.279 18.6 118.692 18.12C118.105 17.64 117.679 17.0667 117.412 16.4C117.145 15.7333 117.012 15.04 117.012 14.32C117.012 13.1733 117.292 12.1867 117.852 11.36C118.412 10.5067 119.199 9.84 120.212 9.36C121.252 8.88 122.452 8.64 123.812 8.64C124.959 8.64 125.999 8.8 126.932 9.12C127.892 9.41333 128.679 9.8 129.292 10.28L128.852 14.92C128.239 14.44 127.545 14.0533 126.772 13.76C126.025 13.4667 125.292 13.32 124.572 13.32C123.745 13.32 123.065 13.56 122.532 14.04C121.999 14.52 121.732 15.24 121.732 16.2C121.732 16.8667 121.852 17.4133 122.092 17.84C122.359 18.2667 122.692 18.6 123.092 18.84C123.492 19.08 123.932 19.2267 124.412 19.28H129.092L129.052 23.32H123.772V37.08H118.812Z" fill="white"/>
<path d="M138.957 37.52C137.864 37.52 136.904 37.3733 136.077 37.08C135.277 36.7867 134.61 36.3467 134.077 35.76C133.544 35.1467 133.144 34.3867 132.877 33.48C132.61 32.5733 132.477 31.5067 132.477 30.28V20.24H129.557L129.597 16.32H131.357C132.237 16.2933 132.877 16.12 133.277 15.8C133.677 15.48 133.93 14.9333 134.037 14.16L134.397 11.52H137.357V16.16H142.797V20.36H137.357V30.04C137.357 31.1333 137.624 31.8933 138.157 32.32C138.69 32.72 139.344 32.92 140.117 32.92C140.624 32.92 141.117 32.8667 141.597 32.76C142.077 32.6267 142.517 32.4133 142.917 32.12V36.88C142.144 37.1467 141.424 37.32 140.757 37.4C140.09 37.48 139.49 37.52 138.957 37.52Z" fill="white"/>
<path d="M156.288 29.32V25.28H161.928C162.408 25.28 162.942 25.2667 163.528 25.24C164.142 25.1867 164.742 25.08 165.328 24.92C165.942 24.76 166.502 24.4934 167.008 24.12C167.515 23.72 167.915 23.1867 168.208 22.52C168.528 21.8534 168.688 20.9867 168.688 19.92C168.688 18.88 168.528 18.04 168.208 17.4C167.915 16.7334 167.515 16.2134 167.008 15.84C166.528 15.4667 166.008 15.2 165.448 15.04C164.888 14.88 164.355 14.7867 163.848 14.76C163.368 14.7334 162.968 14.72 162.648 14.72H156.288V10.68H163.008C164.608 10.68 166.062 10.8667 167.368 11.24C168.702 11.6134 169.848 12.1867 170.808 12.96C171.795 13.7334 172.542 14.7067 173.048 15.88C173.582 17.0534 173.848 18.44 173.848 20.04C173.848 22.04 173.382 23.7334 172.448 25.12C171.542 26.5067 170.182 27.56 168.368 28.28C166.582 28.9734 164.342 29.32 161.648 29.32H156.288ZM152.968 37.08V10.68H158.008V37.08H152.968Z" fill="#97A2B7"/>
<path d="M176.371 37.08V26.56V16.16H180.691L180.531 23.72H181.211C181.424 21.88 181.784 20.3734 182.291 19.2C182.798 18.0267 183.491 17.1467 184.371 16.56C185.251 15.9734 186.331 15.68 187.611 15.68C187.878 15.68 188.171 15.7067 188.491 15.76C188.838 15.8134 189.224 15.8934 189.651 16L189.411 21.4C188.984 21.2134 188.544 21.08 188.091 21C187.638 20.8934 187.211 20.84 186.811 20.84C185.798 20.84 184.918 21.12 184.171 21.68C183.424 22.24 182.824 23.04 182.371 24.08C181.918 25.0934 181.611 26.3067 181.451 27.72V37.08H176.371Z" fill="#97A2B7"/>
<path d="M200.742 37.6C198.689 37.6 196.875 37.1867 195.302 36.36C193.755 35.5334 192.542 34.3067 191.662 32.68C190.782 31.0267 190.342 28.9867 190.342 26.56C190.342 24.1067 190.795 22.08 191.702 20.48C192.609 18.8534 193.835 17.64 195.382 16.84C196.955 16.04 198.729 15.64 200.702 15.64C202.729 15.64 204.529 16.0534 206.102 16.88C207.675 17.7067 208.902 18.9334 209.782 20.56C210.689 22.1867 211.142 24.2267 211.142 26.68C211.142 29.1334 210.689 31.1734 209.782 32.8C208.875 34.4267 207.635 35.64 206.062 36.44C204.489 37.2134 202.715 37.6 200.742 37.6ZM200.902 33.76C201.569 33.76 202.209 33.64 202.822 33.4C203.462 33.16 204.022 32.7734 204.502 32.24C204.982 31.7067 205.355 31.0134 205.622 30.16C205.915 29.28 206.062 28.2 206.062 26.92C206.062 25.5867 205.902 24.4667 205.582 23.56C205.289 22.6267 204.889 21.88 204.382 21.32C203.875 20.7334 203.289 20.3067 202.622 20.04C201.955 19.7734 201.275 19.64 200.582 19.64C199.915 19.64 199.275 19.76 198.662 20C198.049 20.24 197.489 20.6267 196.982 21.16C196.502 21.6934 196.115 22.4 195.822 23.28C195.555 24.1334 195.422 25.2134 195.422 26.52C195.422 27.8267 195.569 28.9467 195.862 29.88C196.155 30.7867 196.555 31.5334 197.062 32.12C197.595 32.68 198.182 33.0934 198.822 33.36C199.489 33.6267 200.182 33.76 200.902 33.76Z" fill="#97A2B7"/>
<path d="M214.088 43.56V26.32V16.16H218.408L218.328 22.04L218.928 22.08C219.195 20.6667 219.635 19.4934 220.248 18.56C220.862 17.6 221.635 16.88 222.568 16.4C223.502 15.8934 224.595 15.64 225.848 15.64C227.688 15.64 229.248 16.0934 230.528 17C231.808 17.9067 232.782 19.1867 233.448 20.84C234.142 22.4934 234.488 24.44 234.488 26.68C234.488 28.84 234.168 30.7467 233.528 32.4C232.888 34.0534 231.942 35.3334 230.688 36.24C229.435 37.1467 227.915 37.6 226.128 37.6C224.768 37.6 223.622 37.3334 222.688 36.8C221.755 36.2667 220.982 35.5067 220.368 34.52C219.782 33.5334 219.315 32.4 218.968 31.12H218.328C218.488 31.8934 218.622 32.68 218.728 33.48C218.862 34.2534 218.955 35.0134 219.008 35.76C219.088 36.48 219.128 37.1867 219.128 37.88V43.56H214.088ZM224.448 33.48C225.488 33.48 226.355 33.1867 227.048 32.6C227.742 32.0134 228.275 31.2134 228.648 30.2C229.048 29.1867 229.248 28.0134 229.248 26.68C229.248 25.32 229.048 24.1334 228.648 23.12C228.275 22.1067 227.728 21.32 227.008 20.76C226.288 20.2 225.422 19.92 224.408 19.92C223.528 19.92 222.755 20.12 222.088 20.52C221.448 20.8934 220.902 21.4 220.448 22.04C220.022 22.68 219.688 23.3734 219.448 24.12C219.235 24.8667 219.128 25.6134 219.128 26.36V26.96C219.128 27.52 219.195 28.1067 219.328 28.72C219.488 29.3067 219.715 29.88 220.008 30.44C220.302 31 220.662 31.5067 221.088 31.96C221.515 32.4134 222.008 32.7867 222.568 33.08C223.128 33.3467 223.755 33.48 224.448 33.48Z" fill="#97A2B7"/>
<path d="M246.936 37.6C244.882 37.6 243.069 37.1867 241.496 36.36C239.949 35.5334 238.736 34.3067 237.856 32.68C236.976 31.0267 236.536 28.9867 236.536 26.56C236.536 24.1067 236.989 22.08 237.896 20.48C238.802 18.8534 240.029 17.64 241.576 16.84C243.149 16.04 244.922 15.64 246.896 15.64C248.922 15.64 250.722 16.0534 252.296 16.88C253.869 17.7067 255.096 18.9334 255.976 20.56C256.882 22.1867 257.336 24.2267 257.336 26.68C257.336 29.1334 256.882 31.1734 255.976 32.8C255.069 34.4267 253.829 35.64 252.256 36.44C250.682 37.2134 248.909 37.6 246.936 37.6ZM247.096 33.76C247.762 33.76 248.402 33.64 249.016 33.4C249.656 33.16 250.216 32.7734 250.696 32.24C251.176 31.7067 251.549 31.0134 251.816 30.16C252.109 29.28 252.256 28.2 252.256 26.92C252.256 25.5867 252.096 24.4667 251.776 23.56C251.482 22.6267 251.082 21.88 250.576 21.32C250.069 20.7334 249.482 20.3067 248.816 20.04C248.149 19.7734 247.469 19.64 246.776 19.64C246.109 19.64 245.469 19.76 244.856 20C244.242 20.24 243.682 20.6267 243.176 21.16C242.696 21.6934 242.309 22.4 242.016 23.28C241.749 24.1334 241.616 25.2134 241.616 26.52C241.616 27.8267 241.762 28.9467 242.056 29.88C242.349 30.7867 242.749 31.5334 243.256 32.12C243.789 32.68 244.376 33.0934 245.016 33.36C245.682 33.6267 246.376 33.76 247.096 33.76Z" fill="#97A2B7"/>
<path d="M268.639 37.6C267.226 37.6 265.946 37.4534 264.799 37.16C263.679 36.8934 262.706 36.4934 261.879 35.96C261.079 35.4267 260.439 34.76 259.959 33.96C259.506 33.16 259.253 32.2667 259.199 31.28L263.239 30C263.293 30.7467 263.546 31.4134 263.999 32C264.453 32.5867 265.093 33.04 265.919 33.36C266.773 33.68 267.786 33.84 268.959 33.84C270.266 33.84 271.279 33.6267 271.999 33.2C272.746 32.7734 273.119 32.1734 273.119 31.4C273.119 30.84 272.919 30.4 272.519 30.08C272.119 29.7334 271.546 29.4534 270.799 29.24C270.053 29 269.146 28.7734 268.079 28.56C267.039 28.3467 266.013 28.1067 264.999 27.84C264.013 27.5467 263.093 27.1734 262.239 26.72C261.413 26.24 260.746 25.6267 260.239 24.88C259.759 24.1334 259.519 23.1867 259.519 22.04C259.519 20.7334 259.866 19.6134 260.559 18.68C261.253 17.72 262.239 16.9734 263.519 16.44C264.826 15.9067 266.386 15.64 268.199 15.64C269.906 15.64 271.399 15.8934 272.679 16.4C273.959 16.88 274.986 17.5867 275.759 18.52C276.559 19.4267 277.039 20.56 277.199 21.92L272.999 23.04C272.946 22.2667 272.706 21.6134 272.279 21.08C271.879 20.5467 271.319 20.1467 270.599 19.88C269.906 19.5867 269.079 19.44 268.119 19.44C266.919 19.44 265.973 19.6534 265.279 20.08C264.586 20.5067 264.239 21.0934 264.239 21.84C264.239 22.4 264.453 22.8667 264.879 23.24C265.333 23.5867 265.946 23.8667 266.719 24.08C267.493 24.2667 268.399 24.48 269.439 24.72C270.453 24.9334 271.453 25.1734 272.439 25.44C273.453 25.7067 274.359 26.0667 275.159 26.52C275.986 26.9734 276.639 27.5734 277.119 28.32C277.599 29.0667 277.839 30.0134 277.839 31.16C277.839 32.52 277.466 33.6934 276.719 34.68C275.999 35.64 274.946 36.3734 273.559 36.88C272.199 37.36 270.559 37.6 268.639 37.6Z" fill="#97A2B7"/>
<path d="M285.605 37.6C284.458 37.6 283.431 37.3867 282.525 36.96C281.618 36.5334 280.898 35.8934 280.365 35.04C279.831 34.16 279.565 33.08 279.565 31.8C279.565 30.4134 279.871 29.3067 280.485 28.48C281.098 27.6267 281.885 26.9734 282.845 26.52C283.831 26.04 284.885 25.6934 286.005 25.48C287.125 25.2667 288.191 25.08 289.205 24.92C290.245 24.7867 291.058 24.6534 291.645 24.52C292.258 24.36 292.685 24.1467 292.925 23.88C293.191 23.5867 293.325 23.2 293.325 22.72C293.325 22.1067 293.191 21.5734 292.925 21.12C292.658 20.6667 292.245 20.3067 291.685 20.04C291.151 19.7467 290.471 19.6 289.645 19.6C288.898 19.6 288.165 19.7334 287.445 20C286.751 20.2667 286.151 20.6934 285.645 21.28C285.165 21.8667 284.845 22.6267 284.685 23.56L280.165 22.36C280.405 21.2134 280.805 20.2267 281.365 19.4C281.925 18.5467 282.618 17.84 283.445 17.28C284.271 16.72 285.205 16.3067 286.245 16.04C287.311 15.7734 288.458 15.64 289.685 15.64C291.285 15.64 292.631 15.8534 293.725 16.28C294.845 16.7067 295.738 17.32 296.405 18.12C297.071 18.92 297.551 19.8667 297.845 20.96C298.138 22.0534 298.285 23.2934 298.285 24.68V28.52C298.285 29.4267 298.298 30.3734 298.325 31.36C298.378 32.32 298.431 33.28 298.485 34.24C298.538 35.2 298.605 36.1467 298.685 37.08H294.165C294.085 36.28 294.018 35.44 293.965 34.56C293.911 33.6534 293.871 32.72 293.845 31.76H293.245C292.925 32.8267 292.418 33.8134 291.725 34.72C291.031 35.6 290.165 36.3067 289.125 36.84C288.111 37.3467 286.938 37.6 285.605 37.6ZM287.565 33.84C288.125 33.84 288.685 33.7467 289.245 33.56C289.805 33.3467 290.351 33.0534 290.885 32.68C291.418 32.28 291.898 31.7734 292.325 31.16C292.778 30.5467 293.138 29.8267 293.405 29L293.365 25.96L294.365 26.04C293.938 26.4134 293.391 26.7067 292.725 26.92C292.085 27.1334 291.391 27.3067 290.645 27.44C289.925 27.5467 289.191 27.6667 288.445 27.8C287.725 27.9334 287.058 28.12 286.445 28.36C285.858 28.6 285.378 28.9334 285.005 29.36C284.658 29.76 284.485 30.32 284.485 31.04C284.485 31.92 284.765 32.6134 285.325 33.12C285.911 33.6 286.658 33.84 287.565 33.84Z" fill="#97A2B7"/>
<path d="M302.101 37.08V8.84003H307.101V37.08H302.101Z" fill="#97A2B7"/>
</svg>
